<svg width="23" height="20" viewBox="0 0 23 20" fill="none" xmlns="http://www.w3.org/2000/svg">
<path d="M19.9952 6.07804V6.12474L20.0381 6.14332C20.6884 6.42518 21.256 6.86831 21.6872 7.43079C22.235 8.14953 22.5317 9.02827 22.5317 9.93201C22.5317 10.8357 22.235 11.7145 21.6872 12.4332C21.256 12.9957 20.6883 13.4388 20.038 13.7207L19.9952 13.7393V13.786V18.9814C19.9952 19.1439 19.9306 19.2997 19.8157 19.4146C19.7008 19.5295 19.545 19.5941 19.3825 19.5941H15.8488C15.6863 19.5941 15.5304 19.5295 15.4155 19.4146C15.3006 19.2997 15.2361 19.1439 15.2361 18.9814V17.3718V17.3235L15.1912 17.3057L7.40185 14.2156L7.30446 14.1769V14.2817V18.9812C7.30446 19.1437 7.23991 19.2995 7.12501 19.4144C7.0101 19.5293 6.85426 19.5939 6.69176 19.5939H4.34607C4.18357 19.5939 4.02772 19.5293 3.91282 19.4144C3.79791 19.2995 3.73336 19.1437 3.73336 18.9812V13.9586V13.8874H3.66221H1.40346C1.24096 13.8874 1.08511 13.8229 0.970208 13.708C0.855303 13.5931 0.79075 13.4372 0.79075 13.2747V6.58935C0.79075 6.42685 0.855303 6.271 0.970207 6.1561C1.08511 6.04119 1.24096 5.97664 1.40346 5.97664H6.56123H6.57483L6.58746 5.97163L15.1912 2.55849L15.2361 2.54067V2.49235V0.882825C15.2361 0.720326 15.3006 0.564482 15.4155 0.449578C15.5304 0.334673 15.6863 0.27012 15.8488 0.27012H19.3825C19.545 0.27012 19.7009 0.334673 19.8158 0.449577C19.9307 0.564482 19.9952 0.720326 19.9952 0.882825V6.07804ZM2.08731 7.20205H2.01616V7.2732V12.5909V12.662H2.08731H6.00791H6.07905V12.5909V7.2732V7.20205H6.00791H2.08731ZM4.95877 18.2973V18.3685H5.02992H6.00791H6.07905V18.2973V13.9586V13.8874H6.00791H5.02992H4.95877V13.9586V18.2973ZM7.30446 12.8103V12.8587L7.34938 12.8765L15.1387 15.9665L15.2361 16.0051V15.9003V3.96357V3.85881L15.1387 3.89744L7.34937 6.98759L7.30446 7.00541V7.05372V12.8103ZM18.6986 18.3685H18.7697V18.2973V1.56668V1.49553H18.6986H16.5326H16.4615V1.56668V18.2973V18.3685H16.5326H18.6986ZM19.9952 12.2215V12.3609L20.108 12.2791C20.4791 12.0104 20.7811 11.6576 20.9894 11.2497C21.1977 10.8417 21.3063 10.3901 21.3063 9.93201C21.3063 9.47392 21.1977 9.02236 20.9894 8.61437C20.7811 8.20637 20.4791 7.85357 20.108 7.5849L19.9952 7.50316V7.64252V12.2215Z" fill="white" stroke="#375CE1" stroke-width="0.142292"/>
</svg>
