<svg width="27" height="30" viewBox="0 0 27 30" fill="none" xmlns="http://www.w3.org/2000/svg">
<path d="M16.0463 22.5692V22.6569L16.108 22.7192L17.5597 24.1877C18.1399 24.7745 17.7294 25.7707 16.9125 25.7707H2.09121C1.28776 25.7707 0.873441 24.7761 1.45522 24.1877L2.90697 22.7192L2.96862 22.6569V22.5692V16.8775C2.96862 13.4441 4.75851 10.6363 7.86915 9.89079L8.03284 9.85156V9.68323V8.90916C8.03284 8.07991 8.69359 7.4151 9.50748 7.4151C10.3214 7.4151 10.9821 8.07991 10.9821 8.90916V9.68323V9.85142L11.1456 9.89075C14.2453 10.6362 16.0463 13.4557 16.0463 16.8775V22.5692ZM14.009 23.9209H14.2225V23.7075V16.8775C14.2225 15.4247 13.7852 14.0931 12.9729 13.1207C12.1575 12.1448 10.9723 11.5416 9.50748 11.5416C8.0427 11.5416 6.85748 12.1448 6.04209 13.1207C5.22971 14.0931 4.79251 15.4247 4.79251 16.8775V23.7075V23.9209H5.00595H14.009ZM11.5339 27.3359C11.4274 28.3728 10.5544 29.1857 9.50748 29.1857C8.45066 29.1857 7.58622 28.3734 7.48092 27.3359H11.5339Z" fill="#5C5C5C" stroke="white" stroke-width="0.426875"/>
<circle cx="18.4717" cy="8.48221" r="8.11062" fill="#533FE5"/>
<path d="M18.9612 11.7908V10.2711H15.5718V9.59663L18.8587 5.81452H19.8064V9.55395H20.5321V10.2711H19.8064V11.7908H18.9612ZM16.5792 9.55395H18.9612V6.81341L16.5792 9.55395Z" fill="white"/>
</svg>
