<svg width="25" height="25" viewBox="0 0 25 25" fill="none" xmlns="http://www.w3.org/2000/svg">
<g clip-path="url(#clip0_214_1394)">
<path d="M21.8259 7.57459L20.0235 9.37695V4.84002V4.7333H19.9168H5.8062H5.69949V4.84002V20.9664V21.0731H5.8062H19.9168H20.0235V20.9664V18.2308L21.8259 16.4285V21.9743C21.8259 22.4717 21.4221 22.8755 20.9247 22.8755H4.7983C4.30088 22.8755 3.89712 22.4717 3.89712 21.9743V3.83212C3.89712 3.3347 4.30088 2.93094 4.7983 2.93094H20.9247C21.4221 2.93094 21.8259 3.3347 21.8259 3.83212V7.57459ZM14.984 17.5697L22.7167 9.83692L23.991 11.1112L16.2583 18.8438L14.9822 18.842L14.984 17.5697ZM13.7627 13.0099V14.8123H8.93662V13.0099H13.7627ZM16.7864 8.97833V10.7807H8.93662V8.97833H16.7864Z" fill="white" stroke="#375CE1" stroke-width="0.213438"/>
</g>
<defs>
<clipPath id="clip0_214_1394">
<rect width="24.1896" height="24.1896" fill="white" transform="translate(0.766724 0.80835)"/>
</clipPath>
</defs>
</svg>
