<svg width="29" height="24" viewBox="0 0 29 24" fill="none" xmlns="http://www.w3.org/2000/svg">
<path d="M17.3522 10.6791L17.3522 10.6791C16.5525 11.3653 15.9728 11.8157 15.5444 12.0859C15.3301 12.2211 15.1488 12.3143 14.9932 12.3688C14.8379 12.4233 14.6989 12.4425 14.574 12.4182L14.5726 12.4179C14.2413 12.35 13.6745 12.0784 12.0372 10.6793L12.0367 10.6789C11.5068 10.2222 11.005 9.7695 10.6942 9.48345M17.3522 10.6791L22.3617 13.9621C22.3815 13.6848 22.1511 13.4471 21.8848 13.4471H7.50831C7.23016 13.4471 7.00764 13.6888 7.02751 13.9621L6.88558 13.9723L6.88559 13.9724L7.22202 18.6718L5.20306 18.283C4.27681 18.1023 4.09559 17.8757 4.06358 17.8129C4.04626 17.7768 4.03671 17.7162 4.04872 17.6206C4.06059 17.5262 4.09171 17.4115 4.13984 17.2788C4.23618 17.0131 4.39207 16.6978 4.5633 16.3643L4.43672 16.2993M17.3522 10.6791C18.0432 10.0859 18.6824 9.50016 18.9248 9.27279C19.0261 9.24617 19.1288 9.23185 19.2305 9.23185C19.6915 9.23185 20.1876 9.48881 20.7005 9.94042C21.2106 10.3896 21.7191 11.0151 22.2029 11.7152C23.1677 13.1114 24.0181 14.7797 24.5752 15.8725L24.5792 15.8805C24.6214 15.9635 24.6679 16.0529 24.7167 16.1465C24.8553 16.4126 25.0117 16.7129 25.1353 16.9978C25.2186 17.1897 25.2838 17.3675 25.3178 17.5166C25.3531 17.6716 25.3475 17.766 25.3254 17.8133C25.2928 17.8767 25.1104 18.1026 24.1861 18.283L22.1671 18.6718L17.3522 10.6791ZM10.6942 9.48345L10.7905 9.37875M10.6942 9.48345C10.6942 9.48349 10.6943 9.48353 10.6943 9.48358L10.7905 9.37875M10.6942 9.48345C10.662 9.45392 10.6361 9.42953 10.6132 9.40798C10.5875 9.38373 10.5656 9.36308 10.5428 9.34275C10.5034 9.3076 10.4763 9.28724 10.4504 9.27329C10.4025 9.24754 10.3379 9.23185 10.1587 9.23185C9.67082 9.23185 9.14758 9.51448 8.60805 10.0085C8.07167 10.4997 7.53874 11.1818 7.03314 11.94C6.14225 13.2759 5.3495 14.827 4.78092 15.9395C4.70417 16.0897 4.6315 16.2319 4.56322 16.3645L4.43672 16.2993M10.7905 9.37875C11.1005 9.66397 11.6011 10.1156 12.1296 10.5711L4.43672 16.2993M10.7905 9.37875C10.7619 9.35244 10.7363 9.32837 10.7129 9.30636C10.532 9.13616 10.4824 9.08956 10.1587 9.08956C8.12183 9.08956 5.86701 13.5016 4.65393 15.8753C4.57726 16.0254 4.50475 16.1672 4.43672 16.2993M2.9457 18.3579L2.94583 18.3582C3.02971 18.5305 3.14505 18.6821 3.29274 18.8152H1.53598C1.19632 18.8152 0.912884 19.0916 0.912884 19.4368C0.912884 19.782 1.19632 20.0584 1.53598 20.0584H7.32414L7.46281 22.0041H6.74141C6.39778 22.0041 6.11831 22.2806 6.11831 22.6218C6.11831 22.9662 6.397 23.2434 6.74141 23.2434H22.6478C22.9922 23.2434 23.2709 22.9662 23.2709 22.6218C23.2709 22.2806 22.9914 22.0041 22.6478 22.0041H21.9264L22.065 20.0584H27.8532C28.1976 20.0584 28.4763 19.7812 28.4763 19.4368C28.4763 19.0924 28.1976 18.8152 27.8532 18.8152H26.0964C26.2441 18.6821 26.3595 18.5305 26.4433 18.3582L26.4435 18.3579C26.6296 17.9735 26.6255 17.5759 26.5145 17.1563C26.4047 16.7411 26.187 16.2924 25.9333 15.7986L25.9333 15.7984C25.8519 15.6404 25.7673 15.4748 25.6796 15.3033C25.0311 14.0347 24.2135 12.4354 23.2702 11.0611C22.7345 10.2805 22.1545 9.56683 21.537 9.02495C20.9635 8.52165 20.3498 8.15967 19.7023 8.03721C19.719 7.91466 19.7227 7.77441 19.6858 7.64239C19.6514 7.50849 19.2549 6.05565 18.4709 4.52789C18.0771 3.76039 17.5831 2.96916 16.9845 2.31601C16.3867 1.66377 15.678 1.14221 14.854 0.92664C14.7495 0.895927 14.6396 0.895929 14.5352 0.926645C13.7121 1.14223 13.0042 1.66382 12.4069 2.31606C11.8088 2.9692 11.315 3.76041 10.9212 4.52789C10.1336 6.06279 9.73617 7.52193 9.7035 7.64194L9.70301 7.64385C9.66942 7.77448 9.67171 7.91371 9.68759 8.0371C9.04074 8.15947 8.42726 8.52153 7.85377 9.02497C7.2365 9.56683 6.65641 10.2805 6.12045 11.061C5.17446 12.4387 4.35436 14.0425 3.70491 15.3126C3.61887 15.4808 3.53583 15.6432 3.45589 15.7984L3.45582 15.7986C3.20219 16.2924 2.98441 16.7411 2.87462 17.1563C2.76362 17.5759 2.75956 17.9735 2.9457 18.3579ZM18.2472 8.21105L18.247 8.21082L18.2402 8.21661C17.9747 8.44245 17.6589 8.73232 17.3221 9.04158C17.0434 9.29745 16.7502 9.56659 16.459 9.82372C15.8313 10.3781 15.2051 10.8841 14.6974 11.1447C14.479 11.0268 13.9557 10.6869 12.8383 9.7264L12.838 9.72617C12.4345 9.38106 12.0335 9.01883 11.7229 8.73538C11.6443 8.66366 11.5709 8.59645 11.5048 8.53594C11.4411 8.4776 11.3842 8.42549 11.336 8.38156C11.2865 8.33652 11.245 8.29897 11.2132 8.27079C11.1843 8.24526 11.1563 8.22099 11.1382 8.20832L11.1382 8.20824L11.1339 8.20544C10.9962 8.11665 10.9288 7.99924 10.9399 7.87002C11.1293 7.82173 11.406 7.75667 11.7444 7.69101C12.089 7.79254 12.4406 7.78988 12.8621 7.7642C12.8963 7.76886 12.931 7.7676 12.9651 7.76165C12.9745 7.76001 12.9838 7.75802 12.9932 7.75571C13.0567 7.75139 13.1219 7.74672 13.1893 7.74191C13.5687 7.71477 14.0138 7.68294 14.5734 7.68294C15.1133 7.68294 15.4565 7.70898 15.7618 7.73214C15.8645 7.73992 15.9628 7.74739 16.0629 7.75342C16.4598 7.77735 16.8668 7.77714 17.632 7.68459C17.9785 7.7515 18.2602 7.81789 18.4506 7.86898C18.4573 7.92627 18.4477 7.97261 18.4285 8.01378C18.3994 8.0761 18.3418 8.14035 18.2472 8.21105ZM8.70965 22.0041L8.17379 14.5481H21.2154L20.6795 22.0041H8.70965ZM14.7085 6.13862C13.5946 6.13862 12.4586 6.27892 11.4019 6.49243C11.69 5.75478 12.0981 4.85307 12.6203 4.05421C13.1938 3.17682 13.8903 2.44612 14.6965 2.1722C15.4988 2.4461 16.1944 3.17584 16.7674 4.05225C17.2892 4.85021 17.6972 5.75101 17.9837 6.48827C17.1153 6.31293 15.9065 6.13862 14.7085 6.13862Z" fill="white" stroke="white" stroke-width="0.284583"/>
</svg>
