<svg width="18" height="18" viewBox="0 0 18 18" fill="none" xmlns="http://www.w3.org/2000/svg">
<path d="M16.1223 5.15903L10.3453 1.39541C9.98896 1.16565 9.57398 1.04346 9.15002 1.04346C8.72605 1.04346 8.31107 1.16565 7.95477 1.39541L2.17772 5.15903C1.92286 5.31093 1.71079 5.52513 1.56145 5.7815C1.4121 6.03787 1.33039 6.328 1.32397 6.62463V16.6989H7.7271V12.7361H10.5729V16.6989H16.9761V6.62463C16.9696 6.328 16.8879 6.03787 16.7386 5.7815C16.5892 5.52513 16.3772 5.31093 16.1223 5.15903ZM15.5531 15.276H11.9958V11.3131H6.30418V15.276H2.74689V6.62463C2.75209 6.56661 2.77174 6.51082 2.80405 6.46235C2.83637 6.41388 2.88031 6.37428 2.93187 6.34716L8.70891 2.58355C8.83553 2.50696 8.98069 2.46648 9.12867 2.46648C9.27665 2.46648 9.42181 2.50696 9.54843 2.58355L15.3255 6.34716C15.377 6.37428 15.421 6.41388 15.4533 6.46235C15.4856 6.51082 15.5053 6.56661 15.5105 6.62463L15.5531 15.276Z" fill="white"/>
</svg>
