<svg width="27" height="27" viewBox="0 0 27 27" fill="none" xmlns="http://www.w3.org/2000/svg">
<path d="M2.46234 13.1572V13.157C2.46234 7.21711 7.2773 2.40216 13.2172 2.40216C19.1571 2.40216 23.9721 7.21711 23.9721 13.157V13.1572C23.9735 14.8535 23.5731 16.5259 22.8037 18.0377C22.0701 19.4792 21.0207 20.7354 19.7351 21.7135L18.8358 20.1729C20.2505 19.0399 21.2908 17.5047 21.818 15.7676C22.3634 13.9704 22.3321 12.0475 21.7286 10.269C21.125 8.4905 19.9795 6.94573 18.4529 5.85169C16.9263 4.75765 15.0954 4.16932 13.2172 4.16932C11.3391 4.16932 9.50813 4.75765 7.98154 5.85169C6.45496 6.94573 5.30943 8.4905 4.70588 10.269C4.10233 12.0475 4.07107 13.9704 4.61649 15.7676C5.14367 17.5047 6.18398 19.0399 7.59859 20.1729L6.69938 21.7135C5.4137 20.7354 4.36438 19.4792 3.63071 18.0377C2.8613 16.5259 2.46091 14.8535 2.46234 13.1572ZM9.8582 16.3L8.94002 17.8743C8.03677 17.0553 7.38623 15.9927 7.06845 14.8119C6.72865 13.5493 6.78578 12.2127 7.23209 10.9837C7.6784 9.75468 8.49224 8.69285 9.56304 7.94249C10.6338 7.19212 11.9097 6.78959 13.2172 6.78959C14.5248 6.78959 15.8006 7.19212 16.8714 7.94249C17.9422 8.69285 18.756 9.75468 19.2024 10.9837C19.6487 12.2127 19.7058 13.5493 19.366 14.8119C19.0482 15.9927 18.3977 17.0553 17.4944 17.8743L16.5762 16.3C17.1595 15.6768 17.5587 14.9027 17.7276 14.0638C17.9073 13.1706 17.8178 12.2441 17.4704 11.4018C17.123 10.5595 16.5333 9.83938 15.7761 9.33263C15.0189 8.82588 14.1283 8.55536 13.2172 8.55536C12.3061 8.55536 11.4155 8.82588 10.6583 9.33263C9.90114 9.83938 9.31147 10.5595 8.96405 11.4018C8.61664 12.2441 8.52713 13.1706 8.70687 14.0638C8.8757 14.9027 9.27491 15.6768 9.8582 16.3ZM14.1006 14.4673V23.9119H12.3338V14.4673H14.1006Z" fill="white" stroke="#6A5BF3" stroke-width="0.426875"/>
</svg>
