<svg width="27" height="27" viewBox="0 0 27 27" fill="none" xmlns="http://www.w3.org/2000/svg">
<path d="M20.7547 22.151H21.0037V21.902V4.827V4.57799H20.7547H5.81406H5.56505V4.827V21.902V22.151H5.81406H20.7547ZM21.8219 23.7874H4.74688C4.52988 23.7874 4.32177 23.7012 4.16834 23.5477C4.0149 23.3943 3.9287 23.1862 3.9287 22.9692V3.75981C3.9287 3.54282 4.0149 3.33471 4.16834 3.18128C4.32177 3.02784 4.52988 2.94164 4.74688 2.94164H21.8219C22.0389 2.94164 22.247 3.02784 22.4004 3.18128C22.5539 3.33471 22.6401 3.54282 22.6401 3.75981V22.9692C22.6401 23.1862 22.5539 23.3943 22.4004 23.5477C22.247 23.7012 22.0389 23.7874 21.8219 23.7874ZM8.19745 7.21039H11.9682V10.9811H8.19745V7.21039ZM8.19745 13.6135H18.3713V15.2499H8.19745V13.6135ZM8.19745 17.8823H18.3713V19.5186H8.19745V17.8823ZM14.6006 8.27758H18.3713V9.91393H14.6006V8.27758Z" fill="white" stroke="#375CE1" stroke-width="0.498021"/>
</svg>
