<svg width="23" height="23" viewBox="0 0 23 23" fill="none" xmlns="http://www.w3.org/2000/svg">
<path d="M16.115 4.40618C16.115 4.01328 15.7968 3.69507 15.4039 3.69507H3.30413C2.91123 3.69507 2.59302 4.01328 2.59302 4.40618C2.59302 4.79909 2.91123 5.1173 3.30413 5.1173H15.4039C15.7968 5.1173 16.115 4.79909 16.115 4.40618Z" fill="white"/>
<path d="M11.3237 8.09442C11.3237 7.70151 11.0054 7.3833 10.6125 7.3833H3.30413C2.91123 7.3833 2.59302 7.70151 2.59302 8.09442C2.59302 8.48733 2.91123 8.80553 3.30413 8.80553H10.6125C11.0054 8.80553 11.3237 8.48733 11.3237 8.09442Z" fill="white"/>
<path d="M8.43218 11.7831C8.43218 11.3902 8.11397 11.072 7.72106 11.072H3.30413C2.91123 11.072 2.59302 11.3902 2.59302 11.7831C2.59302 12.176 2.91123 12.4943 3.30413 12.4943H7.72106C8.11397 12.4943 8.43218 12.1761 8.43218 11.7831Z" fill="white"/>
<path d="M7.1498 14.7605H3.30413C2.91123 14.7605 2.59302 15.0787 2.59302 15.4716C2.59302 15.8645 2.91123 16.1827 3.30413 16.1827H7.15019C7.54275 16.1827 7.86091 15.8645 7.86091 15.4716C7.86091 15.0787 7.54271 14.7605 7.1498 14.7605Z" fill="white"/>
<path d="M18.0414 8.14648V2.81499C18.0414 2.42208 17.7232 2.10388 17.3303 2.10388C16.9374 2.10388 16.6192 2.42208 16.6192 2.81499V7.80826C16.3137 7.76824 16.0022 7.74736 15.6859 7.74736H15.6858H15.6857C11.7461 7.74741 8.54065 10.9496 8.53505 14.888C8.53501 14.8914 8.53453 14.8947 8.53453 14.8982C8.53453 14.9017 8.53501 14.905 8.53505 14.9084C8.53688 16.1942 8.87974 17.4015 9.47791 18.4445H2.03439V1.43395H17.3307C17.7236 1.43395 18.0418 1.11574 18.0418 0.722835C18.0418 0.329926 17.7237 0.0117188 17.3307 0.0117188H1.32367C0.930756 0.0117188 0.612549 0.329926 0.612549 0.722835V19.1553C0.612549 19.5482 0.930756 19.8664 1.32367 19.8664H10.5479C11.8488 21.2113 13.6712 22.049 15.6858 22.049C19.6286 22.049 22.8367 18.8413 22.8367 14.8982C22.8367 11.7801 20.8304 9.12241 18.0414 8.14648ZM16.397 20.5827V20.1973C16.397 19.8044 16.0788 19.4861 15.6858 19.4861C15.2929 19.4861 14.9747 19.8044 14.9747 20.1973V20.5827C12.3833 20.2604 10.3233 18.2007 10.001 15.6093H10.3867C10.7797 15.6093 11.0979 15.2911 11.0979 14.8982C11.0979 14.5052 10.7797 14.187 10.3867 14.187H10.001C10.3233 11.5956 12.3833 9.53594 14.9747 9.21365V9.59905C14.9747 9.99196 15.2929 10.3102 15.6858 10.3102C16.0784 10.3102 16.397 9.99196 16.397 9.59905V9.21365C18.9882 9.53594 21.0479 11.5958 21.3703 14.187H20.9846C20.5917 14.187 20.2734 14.5052 20.2734 14.8982C20.2734 15.2911 20.5917 15.6093 20.9846 15.6093H21.3704C21.0482 18.2008 18.9885 20.2605 16.397 20.5827Z" fill="white"/>
<path d="M16.397 14.6039V11.4655C16.397 11.0726 16.0788 10.7544 15.6858 10.7544C15.2929 10.7544 14.9747 11.0726 14.9747 11.4655V14.8986C14.9747 15.0874 15.0495 15.268 15.1827 15.4017L17.4879 17.7069C17.627 17.8455 17.8088 17.9149 17.991 17.9149C18.1732 17.9149 18.3554 17.8455 18.4941 17.7065C18.7719 17.4287 18.7719 16.9788 18.4941 16.7007L16.397 14.6039Z" fill="white"/>
</svg>
