<svg width="21" height="21" viewBox="0 0 21 21" fill="none" xmlns="http://www.w3.org/2000/svg">
<g clip-path="url(#clip0_400_32)">
<path d="M2.34467 12.9264C3.85157 13.8943 6.28922 14.488 9.1287 14.488H9.7616H9.93946V14.3101V13.0444V12.8665H9.7616H9.1287C7.15315 12.8665 5.43512 12.5354 4.21704 12.0614C3.60725 11.8241 3.13064 11.554 2.80987 11.2781C2.48537 10.999 2.34467 10.7362 2.34467 10.5128V6.59737C3.85157 7.56532 6.28922 8.15902 9.1287 8.15902C11.9682 8.15902 14.4058 7.56532 15.9127 6.59737V10.5128V10.6906H16.0906H17.3564H17.5342V10.5128V4.18376C17.5342 2.99385 16.565 1.99925 15.0757 1.31187C13.5755 0.619473 11.4916 0.208496 9.1287 0.208496C6.7658 0.208496 4.68185 0.619473 3.18165 1.31187C1.69234 1.99925 0.723145 2.99385 0.723145 4.18376V16.8417C0.723145 18.0316 1.69234 19.0263 3.18165 19.7136C4.68169 20.406 6.76538 20.8169 9.12798 20.817C10.241 20.8215 11.352 20.7209 12.4461 20.5165L12.6215 20.4838L12.5882 20.3085L12.3477 19.0427L12.3143 18.8673L12.1391 18.9013C11.1469 19.0938 10.1388 19.1923 9.12813 19.1955C7.15282 19.1954 5.43501 18.8644 4.21704 18.3904C3.60725 18.153 3.13064 17.883 2.80987 17.6071C2.48537 17.328 2.34467 17.0652 2.34467 16.8417V12.9264ZM9.1287 1.83003C11.1042 1.83003 12.8223 2.1611 14.0403 2.63515C14.6501 2.87246 15.1267 3.14255 15.4475 3.41841C15.772 3.69748 15.9127 3.96034 15.9127 4.18376C15.9127 4.40717 15.772 4.67003 15.4475 4.9491C15.1267 5.22497 14.6501 5.49506 14.0403 5.73237C12.8223 6.20641 11.1042 6.53749 9.1287 6.53749C7.15315 6.53749 5.43512 6.20641 4.21704 5.73237C3.60725 5.49506 3.13064 5.22497 2.80987 4.9491C2.48537 4.67003 2.34467 4.40717 2.34467 4.18376C2.34467 3.96034 2.48537 3.69748 2.80987 3.41841C3.13064 3.14255 3.60725 2.87246 4.21704 2.63515C5.43512 2.1611 7.15315 1.83003 9.1287 1.83003Z" fill="white" stroke="#375CE1" stroke-width="0.355729"/>
<path d="M18.6863 19.9421L18.8121 20.0679L18.9379 19.9421L19.8302 19.0497L19.956 18.9239L19.8302 18.7982L17.6903 16.6582C18.608 15.1332 18.1683 13.1415 16.6698 12.1497C15.1305 11.131 13.0567 11.553 12.0379 13.0923C11.0191 14.6316 11.4411 16.7054 12.9805 17.7242C14.0581 18.4374 15.4461 18.4634 16.5463 17.8021L18.6863 19.9421ZM14.8248 16.6638C13.8744 16.6638 13.104 15.8934 13.104 14.943C13.104 13.9926 13.8744 13.2222 14.8248 13.2222C15.7752 13.2222 16.5457 13.9926 16.5457 14.943C16.5457 15.8934 15.7752 16.6638 14.8248 16.6638Z" fill="white" stroke="#375CE1" stroke-width="0.355729"/>
</g>
<defs>
<clipPath id="clip0_400_32">
<rect width="21" height="21" fill="white"/>
</clipPath>
</defs>
</svg>
