<svg width="21" height="21" viewBox="0 0 21 21" fill="none" xmlns="http://www.w3.org/2000/svg">
<path d="M2.34466 12.9265C3.85156 13.8944 6.28921 14.4881 9.12869 14.4881H9.76159H9.93945V14.3102V13.0445V12.8666H9.76159H9.12869C7.15314 12.8666 5.43511 12.5355 4.21703 12.0615C3.60724 11.8242 3.13063 11.5541 2.80986 11.2782C2.48536 10.9991 2.34466 10.7363 2.34466 10.5129V6.59748C3.85156 7.56543 6.28921 8.15913 9.12869 8.15913C11.9682 8.15913 14.4058 7.56543 15.9127 6.59748V10.5129V10.6907H16.0906H17.3564H17.5342V10.5129V4.18387C17.5342 2.99396 16.565 1.99936 15.0757 1.31198C13.5755 0.619587 11.4916 0.20861 9.12869 0.20861C6.76579 0.20861 4.68184 0.619587 3.18164 1.31198C1.69233 1.99936 0.723136 2.99396 0.723136 4.18387V16.8418C0.723136 18.0317 1.69233 19.0264 3.18164 19.7137C4.68168 20.4061 6.76537 20.817 9.12797 20.8171C10.241 20.8216 11.352 20.721 12.4461 20.5166L12.6215 20.4839L12.5882 20.3086L12.3477 19.0428L12.3143 18.8674L12.1391 18.9014C11.1469 19.0939 10.1388 19.1924 9.12812 19.1956C7.15281 19.1955 5.435 18.8645 4.21703 18.3905C3.60724 18.1531 3.13063 17.8831 2.80986 17.6072C2.48536 17.3281 2.34466 17.0653 2.34466 16.8418V12.9265ZM9.12869 1.83014C11.1042 1.83014 12.8223 2.16121 14.0403 2.63526C14.6501 2.87257 15.1267 3.14266 15.4475 3.41852C15.772 3.69759 15.9127 3.96045 15.9127 4.18387C15.9127 4.40728 15.772 4.67014 15.4475 4.94921C15.1267 5.22508 14.6501 5.49517 14.0403 5.73248C12.8223 6.20652 11.1042 6.5376 9.12869 6.5376C7.15314 6.5376 5.43511 6.20652 4.21703 5.73248C3.60724 5.49517 3.13063 5.22508 2.80986 4.94921C2.48536 4.67014 2.34466 4.40728 2.34466 4.18387C2.34466 3.96045 2.48536 3.69759 2.80986 3.41852C3.13063 3.14266 3.60724 2.87257 4.21703 2.63526C5.43511 2.16121 7.15314 1.83014 9.12869 1.83014Z" fill="#092081" stroke="white" stroke-width="0.355729"/>
<path d="M18.6863 19.9422L18.8121 20.068L18.9379 19.9422L19.8302 19.0498L19.956 18.924L19.8302 18.7983L17.6903 16.6583C18.608 15.1333 18.1683 13.1416 16.6698 12.1498C15.1305 11.1311 13.0567 11.5531 12.0379 13.0924C11.0191 14.6317 11.4411 16.7055 12.9805 17.7243C14.0581 18.4375 15.4461 18.4635 16.5463 17.8022L18.6863 19.9422ZM14.8248 16.6639C13.8744 16.6639 13.104 15.8935 13.104 14.9431C13.104 13.9927 13.8744 13.2223 14.8248 13.2223C15.7752 13.2223 16.5457 13.9927 16.5457 14.9431C16.5457 15.8935 15.7752 16.6639 14.8248 16.6639Z" fill="#092081" stroke="white" stroke-width="0.355729"/>
</svg>
