<svg width="23" height="23" viewBox="0 0 23 23" fill="none" xmlns="http://www.w3.org/2000/svg">
<path d="M22.7769 8.06718L20.7353 4.17155C20.6876 4.08033 20.6222 3.99934 20.5429 3.93322C20.4636 3.8671 20.372 3.81714 20.2732 3.78621C20.1744 3.75529 20.0705 3.74399 19.9673 3.75298C19.8642 3.76196 19.7638 3.79105 19.672 3.83857L18.5732 4.40604C18.1878 4.60358 17.7579 4.7001 17.3244 4.68642C16.8908 4.67274 16.468 4.54932 16.096 4.32787L16.0511 4.30052C15.6809 4.07611 15.3748 3.76112 15.1624 3.38571C14.9499 3.01031 14.8382 2.58706 14.8378 2.15651V0.991101C14.8378 0.7838 14.7548 0.58499 14.6071 0.438406C14.4594 0.291823 14.259 0.209473 14.0501 0.209473H9.62631C9.41741 0.209473 9.21707 0.291823 9.06936 0.438406C8.92165 0.58499 8.83866 0.7838 8.83866 0.991101V2.56296C8.83512 2.88825 8.7448 3.20681 8.5769 3.48621C8.409 3.76562 8.16951 3.9959 7.8828 4.15362C7.59609 4.31135 7.27239 4.39089 6.94465 4.38415C6.6169 4.37742 6.2968 4.28464 6.01692 4.11527L4.57907 3.22539C4.40197 3.11548 4.18814 3.07988 3.98459 3.12642C3.78105 3.17296 3.60447 3.29783 3.49369 3.47355L1.14847 7.19567C1.09365 7.28271 1.05664 7.37962 1.03956 7.48085C1.02248 7.58209 1.02566 7.68567 1.04892 7.78569C1.07218 7.8857 1.11506 7.9802 1.17512 8.06377C1.23517 8.14734 1.31123 8.21835 1.39894 8.27275L2.85964 9.17788C3.15124 9.35934 3.38956 9.61379 3.55064 9.91565C3.71172 10.2175 3.78987 10.5561 3.77724 10.8975V10.9365C3.76453 11.2792 3.66047 11.6124 3.47568 11.9021C3.29088 12.1918 3.03197 12.4277 2.72534 12.5858L1.2359 13.3526C1.14401 13.3999 1.06244 13.4648 0.995848 13.5435C0.929259 13.6222 0.87896 13.7132 0.847832 13.8112C0.816703 13.9092 0.805355 14.0123 0.814436 14.1147C0.823518 14.2171 0.852851 14.3166 0.900758 14.4078L2.94234 18.3026C2.99005 18.3938 3.05542 18.4748 3.1347 18.5409C3.21399 18.6071 3.30564 18.657 3.40441 18.6879C3.50318 18.7189 3.60712 18.7302 3.71029 18.7212C3.81346 18.7122 3.91383 18.6831 4.00566 18.6356L5.10443 18.0681C5.49176 17.8705 5.9236 17.7746 6.35885 17.7894C6.7941 17.8043 7.21829 17.9294 7.59103 18.1529L7.62687 18.1748C7.99714 18.3992 8.30316 18.7142 8.51562 19.0896C8.72807 19.465 8.83985 19.8883 8.84024 20.3188V21.4831C8.84024 21.6904 8.92322 21.8892 9.07093 22.0357C9.21865 22.1823 9.41899 22.2647 9.62788 22.2647H14.0513C14.2602 22.2647 14.4605 22.1823 14.6083 22.0357C14.756 21.8892 14.839 21.6904 14.839 21.4831V19.9132C14.8424 19.5878 14.9327 19.2691 15.1006 18.9897C15.2685 18.7102 15.5081 18.4799 15.7949 18.3221C16.0817 18.1644 16.4055 18.085 16.7333 18.0918C17.0611 18.0987 17.3813 18.1916 17.6611 18.3612L19.0989 19.2527C19.2761 19.3624 19.4899 19.3978 19.6934 19.3511C19.8968 19.3044 20.0733 19.1795 20.1839 19.0037L22.5291 15.2804C22.584 15.1934 22.621 15.0965 22.6381 14.9953C22.6551 14.894 22.652 14.7904 22.6287 14.6904C22.6054 14.5904 22.5626 14.4959 22.5025 14.4123C22.4424 14.3288 22.3664 14.2578 22.2787 14.2034L20.8215 13.2986C20.5299 13.1171 20.2915 12.8627 20.1304 12.5609C19.9693 12.259 19.891 11.9204 19.9035 11.579V11.54C19.9163 11.1973 20.0204 10.8642 20.2051 10.5744C20.3899 10.2847 20.6488 10.0488 20.9554 9.89072L22.4421 9.12355C22.534 9.07617 22.6156 9.01128 22.6822 8.93258C22.7488 8.85389 22.799 8.76293 22.8302 8.66492C22.8613 8.56691 22.8727 8.46377 22.8636 8.36141C22.8545 8.25904 22.8252 8.15946 22.7773 8.06836L22.7769 8.06718ZM20.2272 8.50138C19.6726 8.78773 19.2045 9.21506 18.8707 9.73971C18.5369 10.2644 18.3494 10.8675 18.3274 11.4876V11.5212C18.3056 12.1369 18.4472 12.7474 18.7381 13.2917C19.0289 13.836 19.4588 14.2948 19.9846 14.6223L20.7754 15.1128L19.2655 17.5108L18.4944 17.0336C17.976 16.7165 17.3819 16.542 16.773 16.5281C16.1642 16.5143 15.5626 16.6615 15.03 16.9546C14.4975 17.2478 14.0532 17.6764 13.7428 18.1963C13.4323 18.7162 13.267 19.3088 13.2637 19.9132V20.7034H10.414V20.3208C10.4102 19.6178 10.225 18.9276 9.87599 18.3159C9.52696 17.7042 9.02579 17.1915 8.42029 16.8267C7.81479 16.4619 7.12518 16.2572 6.41728 16.2321C5.70938 16.2071 5.00681 16.3624 4.37664 16.6835L3.97652 16.8898L2.66272 14.3788L3.45037 13.9728C4.005 13.6864 4.47311 13.2591 4.80688 12.7344C5.14065 12.2098 5.32813 11.6066 5.35017 10.9866V10.953C5.37204 10.3373 5.23045 9.7268 4.93959 9.18258C4.64873 8.63837 4.21882 8.17959 3.69297 7.85224L2.90217 7.36137L4.41209 4.96373L5.18319 5.44091C5.7015 5.75798 6.29549 5.93244 6.9042 5.9464C7.51291 5.96035 8.11439 5.81328 8.64689 5.5203C9.17939 5.22732 9.62373 4.79898 9.93427 4.27926C10.2448 3.75954 10.4104 3.16716 10.414 2.56296V1.77273H13.2637V2.15534C13.2675 2.85822 13.4528 3.54841 13.8018 4.16003C14.1509 4.77166 14.6521 5.28432 15.2575 5.64909C15.863 6.01387 16.5525 6.21859 17.2604 6.24372C17.9683 6.26885 18.6708 6.11355 19.301 5.79264L19.7011 5.58629L21.0149 8.09493L20.2272 8.50138Z" fill="#5C5C5C" stroke="white" stroke-width="0.142292"/>
<path d="M11.8391 7.10181C11.0212 7.10181 10.2216 7.34434 9.54158 7.79874C8.86153 8.25314 8.33149 8.89899 8.01849 9.65463C7.7055 10.4103 7.6236 11.2417 7.78317 12.0439C7.94273 12.8461 8.33658 13.583 8.91492 14.1613C9.49326 14.7396 10.2301 15.1335 11.0323 15.293C11.8345 15.4526 12.666 15.3707 13.4216 15.0577C14.1772 14.7447 14.8231 14.2147 15.2775 13.5346C15.7319 12.8546 15.9744 12.0551 15.9744 11.2372C15.9732 10.1408 15.5371 9.08962 14.7619 8.31435C13.9866 7.53908 12.9355 7.10301 11.8391 7.10181ZM11.8391 13.7184C11.3483 13.7184 10.8686 13.5728 10.4606 13.3002C10.0525 13.0276 9.73451 12.6401 9.54672 12.1867C9.35892 11.7333 9.30978 11.2344 9.40552 10.7531C9.50126 10.2718 9.73757 9.82968 10.0846 9.48268C10.4316 9.13567 10.8737 8.89936 11.355 8.80362C11.8363 8.70788 12.3352 8.75702 12.7886 8.94482C13.242 9.13261 13.6295 9.45064 13.9021 9.85867C14.1747 10.2667 14.3203 10.7464 14.3203 11.2372C14.3196 11.895 14.058 12.5257 13.5928 12.9909C13.1276 13.4561 12.4969 13.7177 11.8391 13.7184Z" fill="#5C5C5C" stroke="white" stroke-width="0.142292"/>
</svg>
