<svg width="22" height="30" viewBox="0 0 22 30" fill="none" xmlns="http://www.w3.org/2000/svg">
<path d="M18.5227 3.24977L18.7164 3.43951C20.6226 5.38428 21.7258 7.98097 21.7979 10.7099C21.8724 13.529 20.8406 16.2653 18.9234 18.3334C16.1105 21.2441 13.8239 24.6206 12.1652 28.3129L12.1651 28.3129L12.1637 28.3163L11.7368 29.316C11.6751 29.4599 11.5726 29.5824 11.4419 29.6686C11.3112 29.7547 11.1581 29.8006 11.0016 29.8006C10.8451 29.8006 10.692 29.7547 10.5613 29.6686C10.4307 29.5824 10.3281 29.4599 10.2664 29.316L10.0746 28.8664L10.0746 28.8664L10.0732 28.8634C8.32813 24.9541 5.9374 21.3665 3.00127 18.2509C2.04739 17.2048 1.30995 15.9802 0.83145 14.6478C0.352785 13.3149 0.142716 11.9005 0.213357 10.486C0.352229 7.77448 1.50359 5.21379 3.43974 3.31037C5.37591 1.40692 7.9559 0.299373 10.6694 0.206765L10.6697 0.206755C12.1166 0.155275 13.5588 0.39848 14.9088 0.921593C16.2588 1.44471 17.4883 2.23681 18.5227 3.24977ZM8.66822 14.4931C9.35891 14.9546 10.1709 15.2009 11.0016 15.2009C12.1155 15.2009 13.1838 14.7584 13.9715 13.9707C14.7591 13.1831 15.2016 12.1148 15.2016 11.0009C15.2016 10.1702 14.9553 9.35817 14.4938 8.66749C14.0323 7.9768 13.3763 7.43847 12.6089 7.12059C11.8414 6.8027 10.997 6.71952 10.1822 6.88158C9.36751 7.04364 8.61915 7.44365 8.03176 8.03103C7.44438 8.61841 7.04437 9.36678 6.88231 10.1815C6.72026 10.9962 6.80343 11.8407 7.12132 12.6082C7.43921 13.3756 7.97753 14.0316 8.66822 14.4931Z" fill="#F56D5F" stroke="#5D1516" stroke-width="0.4"/>
<circle cx="11" cy="11" r="4" fill="#5D1516"/>
</svg>
